<svg viewBox="0 0 800 600" xmlns="http://www.w3.org/2000/svg">
  <defs>
    <style>
      .title { font: bold 20px sans-serif; text-anchor: middle; fill: #1e40af; }
      .phase-title { font: bold 16px sans-serif; text-anchor: middle; fill: #059669; }
      .box-text { font: 14px sans-serif; text-anchor: middle; fill: #374151; }
      .small-text { font: 12px sans-serif; text-anchor: middle; fill: #6b7280; }
      .main-box { fill: #dbeafe; stroke: #2563eb; stroke-width: 2; rx: 8; }
      .process-box { fill: #f0f9ff; stroke: #0284c7; stroke-width: 2; rx: 6; }
      .data-box { fill: #ecfdf5; stroke: #059669; stroke-width: 2; rx: 6; }
      .eval-box { fill: #fef3c7; stroke: #f59e0b; stroke-width: 2; rx: 6; }
      .arrow { stroke: #374151; stroke-width: 2; fill: none; marker-end: url(#arrowhead); }
      .arrow2 { stroke: #374151; stroke-width: 2; fill: none; marker-end: url(#arrowhead); }
      .phase-bg { fill: #f8fafc; stroke: #cbd5e1; stroke-width: 1; rx: 10; opacity: 0.8; }
    </style>
  </defs>
  
  <!-- Background -->
  <rect width="800" height="600" fill="#ffffff"/>
  
  <!-- Title -->
  <text x="400" y="30" class="title">Classification Methodology Workflow</text>
  
  <!-- Phase 1: Data Preparation -->
  <rect x="20" y="60" width="750" height="80" class="phase-bg"/>
  <text x="50" y="80" class="phase-title">Phase 1: Data Preparation</text>
  
  <!-- Dataset -->
  <rect x="50" y="90" width="120" height="40" class="data-box"/>
  <text x="110" y="110" class="box-text">Dataset</text>
  
  <!-- Data Split -->
  <rect x="200" y="80" width="100" height="25" class="data-box"/>
  <text x="250" y="97" class="box-text">Training Data</text>
  
  <rect x="200" y="115" width="100" height="25" class="data-box"/>
  <text x="250" y="132" class="box-text">Test Data</text>
  
  <!-- Arrows from Dataset -->
  <path d="M 170 105 L 195 92" class="arrow"/>
  <path d="M 170 115 L 195 127" class="arrow"/>
  
  <!-- Phase 2: Cross-Validation -->
  <rect x="20" y="160" width="750" height="80" class="phase-bg"/>
  <text x="50" y="180" class="phase-title">Phase 2: Cross-Validation & Hyperparameter Tuning</text>
  
  <!-- Parameters -->
  <rect x="50" y="190" width="100" height="40" class="process-box"/>
  <text x="100" y="210" class="box-text">Parameters</text>
  
  <!-- Cross-validation -->
  <rect x="200" y="190" width="120" height="40" class="process-box"/>
  <text x="260" y="205" class="box-text">Cross-validation</text>
  <text x="260" y="220" class="small-text">K-Fold Stratified</text>
  
  <!-- Best parameters -->
  <rect x="370" y="190" width="100" height="40" class="process-box"/>
  <text x="420" y="205" class="box-text">Best</text>
  <text x="420" y="220" class="box-text">Parameters</text>
  
  <!-- Arrows for cross-validation -->
  <path d="M 150 210 L 195 210" class="arrow"/>
  <path d="M 320 210 L 365 210" class="arrow"/>
  <path d="M 250 145 L 250 185" class="arrow"/>
  
  <!-- Phase 3: Model Training -->
  <rect x="20" y="260" width="750" height="80" class="phase-bg"/>
  <text x="50" y="280" class="phase-title">Phase 3: Model Training & Selection</text>
  
  <!-- Retrained model -->
  <rect x="200" y="290" width="120" height="40" class="main-box"/>
  <text x="260" y="305" class="box-text">Retrained Model</text>
  <text x="260" y="320" class="small-text">Best Algorithm</text>
  
  <!-- Arrow from best parameters -->
  <path d="M 420 235 L 420 250 L 260 250 L 260 285" class="arrow"/>
  <path d="M 250 235 L 250 285" class="arrow"/>
  
  <!-- Phase 4: Final Evaluation -->
  <rect x="20" y="360" width="750" height="120" class="phase-bg"/>
  <text x="50" y="380" class="phase-title">Phase 4: Final Evaluation</text>
  
  <!-- Final evaluation -->
  <rect x="350" y="400" width="120" height="50" class="eval-box"/>
  <text x="410" y="420" class="box-text">Final Evaluation</text>
  <text x="410" y="435" class="small-text">Test Set Performance</text>
  
  <!-- Arrows to final evaluation -->
  <path d="M 260 335 L 260 360 L 350 360 L 350 400" class="arrow"/>
  <path d="M 250 145 L 320 145 L 320 360 L 350 360" class="arrow"/>
  
  <!-- Phase 5: Metrics & Validation -->
  <rect x="50" y="490" width="700" height="80" class="phase-bg"/>
  <text x="400" y="515" class="phase-title">Performance Metrics</text>
  
  <!-- Metrics boxes -->
  <rect x="80" y="530" width="100" height="30" class="eval-box"/>
  <text x="130" y="550" class="box-text">Accuracy</text>
  
  <rect x="200" y="530" width="100" height="30" class="eval-box"/>
  <text x="250" y="550" class="box-text">Precision</text>
  
  <rect x="320" y="530" width="100" height="30" class="eval-box"/>
  <text x="370" y="550" class="box-text">Recall</text>
  
  <rect x="440" y="530" width="100" height="30" class="eval-box"/>
  <text x="490" y="550" class="box-text">F1-Score</text>
  
  <rect x="560" y="530" width="100" height="30" class="eval-box"/>
  <text x="610" y="550" class="box-text">ROC-AUC</text>
  
  <!-- Arrows to metrics -->
  <path d="M 410 455 L 410 480 L 130 480 L 130 525" class="arrow"/>
  <path d="M 410 480 L 250 480 L 250 525" class="arrow"/>
  <path d="M 410 480 L 370 480 L 370 525" class="arrow"/>
  <path d="M 410 480 L 490 480 L 490 525" class="arrow"/>
  <path d="M 410 480 L 610 480 L 610 525" class="arrow"/>
  
  <!-- Methodology steps on the right -->
  <rect x="520" y="90" width="220" height="240" class="phase-bg"/>
  <text x="630" y="110" class="phase-title">Key Methodology Steps</text>
  
  <text x="530" y="135" class="small-text">1. Data Exploration & Cleaning</text>
  <text x="530" y="150" class="small-text">2. Stratified Train-Test Split</text>
  <text x="530" y="165" class="small-text">3. Feature Engineering</text>
  <text x="530" y="180" class="small-text">4. Algorithm Selection</text>
  <text x="530" y="195" class="small-text">5. Hyperparameter Tuning</text>
  <text x="530" y="210" class="small-text">6. Cross-Validation</text>
  <text x="530" y="225" class="small-text">7. Model Training</text>
  <text x="530" y="240" class="small-text">8. Performance Evaluation</text>
  <text x="530" y="255" class="small-text">9. Model Selection</text>
  <text x="530" y="270" class="small-text">10. Final Testing</text>
  <text x="530" y="285" class="small-text">11. Results Interpretation</text>
  <text x="530" y="300" class="small-text">12. Model Deployment</text>
  
  <!-- Arrow marker definition -->
  <defs>
    <marker id="arrowhead" markerWidth="10" markerHeight="7" 
     refX="9" refY="3.5" orient="auto">
      <polygon points="0 0, 10 3.5, 0 7" fill="#374151"/>
    </marker>
  </defs>
</svg> 