<?xml version="1.0" encoding="UTF-8"?>
<svg version="1.1" xmlns="http://www.w3.org/2000/svg" width="1024" height="1024">
<path d="M0 0 C337.92 0 675.84 0 1024 0 C1024 337.92 1024 675.84 1024 1024 C686.08 1024 348.16 1024 0 1024 C0 686.08 0 348.16 0 0 Z " fill="#1A1A1A" transform="translate(0,0)"/>
<path d="M0 0 C2.00674389 3.88959117 4.00008081 7.78567605 5.98144531 11.68823242 C6.65686346 13.01397528 7.33586612 14.33789845 8.01855469 15.65991211 C9.00110169 17.56413403 9.97043149 19.47459902 10.9375 21.38671875 C11.52402344 22.53358154 12.11054688 23.68044434 12.71484375 24.86206055 C13.98367623 27.96014258 14.65823281 29.72248353 14 33 C12.21850586 34.6940918 12.21850586 34.6940918 9.71484375 36.19921875 C8.79896484 36.76358643 7.88308594 37.3279541 6.93945312 37.90942383 C5.94880859 38.49618896 4.95816406 39.0829541 3.9375 39.6875 C1.90413573 40.93357145 -0.12841449 42.18097226 -2.16015625 43.4296875 C-3.16062988 44.03780273 -4.16110352 44.64591797 -5.19189453 45.27246094 C-8.8584512 47.52811691 -12.43718851 49.89748529 -16 52.3125 C-20.63243606 55.43078837 -25.29377027 58.49419154 -30 61.5 C-34.8711661 64.61175252 -39.69807579 67.78244507 -44.5 71 C-49.61193594 74.42335143 -54.75515548 77.78898105 -59.93945312 81.10229492 C-66.48753824 85.29614447 -72.99242398 89.55621054 -79.5 93.8125 C-80.07279694 94.18698273 -80.64559387 94.56146545 -81.23574829 94.94729614 C-88.27617557 99.53229154 -88.27617557 99.53229154 -95.23632812 104.23706055 C-98 106 -98 106 -100 106 C-100 106.66 -100 107.32 -100 108 C-99.31292969 108.23976563 -98.62585938 108.47953125 -97.91796875 108.7265625 C-94.44121051 110.24386262 -91.42822629 112.24034296 -88.3125 114.375 C-86.97666762 115.27749936 -85.64072529 116.17983599 -84.3046875 117.08203125 C-83.6044043 117.55721191 -82.90412109 118.03239258 -82.18261719 118.52197266 C-78.44566517 121.05256633 -74.69193407 123.55794462 -70.9375 126.0625 C-70.17195801 126.57361328 -69.40641602 127.08472656 -68.61767578 127.61132812 C-64.16758446 130.57615757 -59.69416012 133.49693151 -55.1875 136.375 C-49.23998752 140.174224 -43.36572592 144.07582728 -37.5 148 C-30.59904706 152.61508861 -23.67368812 157.17760387 -16.67578125 161.64453125 C-11.1261363 165.19009419 -5.61655533 168.79797904 -0.10131836 172.39672852 C4.89894677 175.65393819 9.92966355 178.85289461 15 182 C13.52356643 186.87601652 11.50075029 191.23591905 9.1875 195.75 C8.83365234 196.44867187 8.47980469 197.14734375 8.11523438 197.8671875 C7.4082464 199.26313461 6.69978334 200.65833578 5.98974609 202.05273438 C4.64662107 204.6952517 3.32262352 207.34717345 2 210 C1.33333333 211.33333333 0.66666667 212.66666667 0 214 C-3.98191068 213.43790505 -6.48992773 212.26912909 -9.7734375 209.97265625 C-10.67288086 209.35044189 -11.57232422 208.72822754 -12.49902344 208.0871582 C-13.4480957 207.419021 -14.39716797 206.75088379 -15.375 206.0625 C-17.36678224 204.6817069 -19.35897054 203.30149935 -21.3515625 201.921875 C-22.32125977 201.24705078 -23.29095703 200.57222656 -24.29003906 199.87695312 C-27.7497653 197.4807031 -31.24132345 195.1362458 -34.75 192.8125 C-35.33749023 192.42231689 -35.92498047 192.03213379 -36.53027344 191.63012695 C-37.72728126 190.83522364 -38.92454858 190.04071094 -40.12207031 189.24658203 C-43.62684421 186.92009015 -47.12537332 184.58422403 -50.625 182.25 C-52.16013099 181.22652461 -53.69528768 180.20308777 -55.23046875 179.1796875 C-64.86328125 172.7578125 -64.86328125 172.7578125 -67.37353516 171.08422852 C-69.09576592 169.93612933 -70.81809815 168.78818234 -72.54052734 167.64038086 C-77.02962482 164.64859988 -81.51739423 161.65486269 -86.00219727 158.65664673 C-102.44972756 147.65765753 -102.44972756 147.65765753 -119.03051758 136.86108398 C-125.16768039 132.91362021 -131.23455936 128.86308728 -137.29125977 124.79345703 C-138.00854248 124.31247559 -138.7258252 123.83149414 -139.46484375 123.3359375 C-140.100271 122.90845215 -140.73569824 122.4809668 -141.39038086 122.04052734 C-143.02725894 120.94053715 -143.02725894 120.94053715 -145 120 C-147.4835789 98.20659514 -147.4835789 98.20659514 -143.86474609 92.07714844 C-140.44664894 88.84536976 -136.03885096 87.23098407 -131.77880859 85.37109375 C-126.63363631 82.83241096 -121.98904151 79.45872014 -117.27062988 76.21343994 C-114.34448787 74.20810973 -111.39331333 72.24056234 -108.44140625 70.2734375 C-107.87650482 69.89637665 -107.31160339 69.5193158 -106.72958374 69.13082886 C-102.34811574 66.21353131 -97.91925541 63.38509138 -93.4375 60.625 C-87.47542651 56.95182688 -81.63417931 53.12765579 -75.82055664 49.22412109 C-68.73421054 44.47233521 -61.6016047 39.79286956 -54.46417236 35.11837769 C-43.82956623 28.15286446 -33.205765 21.17210935 -22.625 14.125 C-21.68833496 13.50206055 -20.75166992 12.87912109 -19.78662109 12.23730469 C-14.45581152 8.67955398 -9.20190548 5.03794515 -4.00927734 1.28076172 C-2 0 -2 0 0 0 Z " fill="#F5F5F5" transform="translate(365,403)"/>
<path d="M0 0 C0.7381192 0.00176239 1.4762384 0.00352478 2.23672485 0.00534058 C15.4984827 0.07545763 27.74546978 1.73846353 40.5 5.5 C41.47001953 5.78359375 42.44003906 6.0671875 43.43945312 6.359375 C48.36273254 7.81434286 53.26765747 9.32050288 58.1640625 10.86328125 C64.00001435 12.68532334 69.88272069 14.17828722 75.83203125 15.578125 C79.5 16.5 79.5 16.5 81.68383789 17.26220703 C88.93294769 19.74807922 95.69096369 19.94911543 103.3125 19.875 C104.49392578 19.88660156 105.67535156 19.89820313 106.89257812 19.91015625 C120.41592221 19.86569594 131.69768884 16.39298989 144 11 C145.13953125 10.51402344 146.2790625 10.02804687 147.453125 9.52734375 C153.48151324 6.95744156 153.48151324 6.95744156 159.23242188 3.83789062 C161.5 2.5 161.5 2.5 163.5 2.5 C166.51337975 10.96024487 169.50969172 19.42575607 172.375 27.9375 C172.78492188 29.15308594 173.19484375 30.36867188 173.6171875 31.62109375 C174.5 34.5 174.5 34.5 174.5 36.5 C170.89594315 38.00094814 167.28863966 39.49380133 163.6784668 40.97998047 C161.86405718 41.72872415 160.05210623 42.4834172 158.24023438 43.23828125 C150.4337527 46.44642441 142.6093927 49.16638154 134.5 51.5 C133.75645264 51.72526367 133.01290527 51.95052734 132.24682617 52.18261719 C113.89961673 57.61377327 92.8792021 57.7512006 74.5 52.5 C72.55592536 52.06798341 70.61173409 51.63641907 68.66552734 51.21411133 C61.05283658 49.53408751 53.63122221 47.37080827 46.1875 45.0625 C43.22532001 44.15910058 40.26231521 43.25847687 37.29882812 42.359375 C35.53083036 41.81651455 33.76598332 41.26318334 32.00585938 40.6953125 C12.38857391 34.41000551 -11.04451862 33.04014679 -30.5 40.5 C-31.83876575 40.96664594 -33.17867117 41.43003147 -34.51953125 41.890625 C-42.02687407 44.53045385 -49.12432835 47.62205249 -56.14453125 51.3984375 C-58.5 52.5 -58.5 52.5 -61.5 52.5 C-62.63011341 49.16837869 -63.75314259 45.83440952 -64.875 42.5 C-65.19210937 41.56542969 -65.50921875 40.63085938 -65.8359375 39.66796875 C-70.30819998 26.34435343 -70.30819998 26.34435343 -70.68359375 20.77734375 C-68.61415835 16.7955588 -64.56465467 15.72493914 -60.5625 14.0625 C-59.66313721 13.67562012 -58.76377441 13.28874023 -57.8371582 12.89013672 C-52.02610744 10.43559619 -46.15596332 8.16696456 -40.1875 6.125 C-39.53338135 5.8988501 -38.8792627 5.6727002 -38.20532227 5.43969727 C-25.57886587 1.34458879 -13.17509588 -0.0849717 0 0 Z " fill="#3B82F6" transform="translate(636.5,419.5)"/>
<path d="M0 0 C1.56047445 0.00015913 3.12095416 0.00585397 4.68139648 0.01586914 C5.5012352 0.01728409 6.32107391 0.01869904 7.16575623 0.02015686 C9.79470406 0.0257725 12.42356797 0.0383276 15.05249023 0.05102539 C16.8304838 0.05603838 18.60847869 0.06060163 20.38647461 0.06469727 C24.75434569 0.07574701 29.12215371 0.09302208 33.48999023 0.11352539 C30.69246398 9.05744146 27.1225388 17.68102441 23.61499023 26.36352539 C22.3870591 29.40985061 21.160713 32.45681032 19.93530273 35.50415039 C19.48704132 36.61802124 19.48704132 36.61802124 19.02972412 37.75439453 C17.27870622 42.11556617 15.56530698 46.48877563 13.88842773 50.87915039 C10.92266477 58.64286418 7.75341843 66.32103491 4.59545898 74.00805664 C2.35699905 79.47494331 0.15451988 84.94956505 -1.95141602 90.46899414 C-5.08977473 98.6847291 -8.43822414 106.81328461 -11.77783203 114.94873047 C-14.8154069 122.3541069 -17.78693021 129.7718567 -20.56860352 137.27758789 C-23.24240763 144.48948289 -26.14875809 151.58741238 -29.13500977 158.67602539 C-34.11533234 170.56664775 -38.83712473 182.54433122 -43.4128418 194.59619141 C-43.87674316 195.81105225 -44.34064453 197.02591309 -44.81860352 198.27758789 C-45.21877686 199.33413574 -45.6189502 200.39068359 -46.03125 201.47924805 C-48.04185323 206.42061171 -50.30247286 211.25694419 -52.51000977 216.11352539 C-64.72000977 216.11352539 -76.93000977 216.11352539 -89.51000977 216.11352539 C-87.63103227 210.47659289 -85.7362025 204.94671815 -83.54907227 199.43774414 C-83.27662689 198.74646927 -83.00418152 198.0551944 -82.72348022 197.3429718 C-82.15149425 195.89308026 -81.57837384 194.44363576 -81.00415039 192.99462891 C-80.14142537 190.81721757 -79.28244974 188.63835689 -78.42407227 186.45922852 C-76.03312085 180.40094987 -73.62775269 174.35292704 -71.09594727 168.35180664 C-67.38524461 159.51239891 -63.97645945 150.55071512 -60.51000977 141.61352539 C-52.49178376 120.9409602 -52.49178376 120.9409602 -48.68188477 111.90991211 C-46.39072465 106.44263129 -44.20797892 100.93127085 -42.01000977 95.42602539 C-41.75467468 94.78724457 -41.4993396 94.14846375 -41.23626709 93.49032593 C-36.89829779 82.63674472 -32.60868685 71.76445831 -28.33328247 60.8861084 C-22.52019096 46.09843878 -16.6291126 31.34212189 -10.7074585 16.59761047 C-9.54859115 13.71151335 -8.39578952 10.82336948 -7.2565918 7.92944336 C-6.71881104 6.56456787 -6.71881104 6.56456787 -6.17016602 5.17211914 C-5.86860596 4.40053467 -5.5670459 3.6289502 -5.25634766 2.83398438 C-3.90649079 -0.27770726 -3.75451163 0.12143339 0 0 Z " fill="#3B82F6" transform="translate(503.510009765625,401.886474609375)"/>
<path d="M0 0 C77.22 0 154.44 0 234 0 C234 11.22 234 22.44 234 34 C156.78 34 79.56 34 0 34 C0 22.78 0 11.56 0 0 Z " fill="#3B82F6" transform="translate(570,495)"/>
<path d="M0 0 C76.89 0 153.78 0 233 0 C233 11.22 233 22.44 233 34 C156.11 34 79.22 34 0 34 C0 22.78 0 11.56 0 0 Z " fill="#3B82F6" transform="translate(571,570)"/>
<path d="M0 0 C0.66 0 1.32 0 2 0 C2.51046875 1.17755859 2.51046875 1.17755859 3.03125 2.37890625 C8.05320028 13.26425062 13.78827324 18.82155554 25 23 C25 23.66 25 24.32 25 25 C24.21496094 25.3403125 23.42992187 25.680625 22.62109375 26.03125 C11.73574938 31.05320028 6.17844446 36.78827324 2 48 C1.34 48 0.68 48 0 48 C-0.3403125 47.21496094 -0.680625 46.42992187 -1.03125 45.62109375 C-6.05320028 34.73574938 -11.78827324 29.17844446 -23 25 C-23 24.34 -23 23.68 -23 23 C-22.21496094 22.6596875 -21.42992187 22.319375 -20.62109375 21.96875 C-9.73574938 16.94679972 -4.17844446 11.21172676 0 0 Z " fill="#2A2A2A" transform="translate(967,944)"/>
<path d="M0 0 C1.65 0.33 3.3 0.66 5 1 C5 1.99 5 2.98 5 4 C2.03 3.505 2.03 3.505 -1 3 C-0.67 2.01 -0.34 1.02 0 0 Z " fill="#2A2A2A" transform="translate(367,444)"/>
<path d="M0 0 C0.33 0 0.66 0 1 0 C1 1.98 1 3.96 1 6 C0.01 6 -0.98 6 -2 6 C-2 2 -2 2 0 0 Z " fill="#2A2A2A" transform="translate(371,608)"/>
<path d="M0 0 C1.65 0 3.3 0 5 0 C5.33 0.99 5.66 1.98 6 3 C3.69 3 1.38 3 -1 3 C-0.67 2.01 -0.34 1.02 0 0 Z " fill="#2A2A2A" transform="translate(259,551)"/>
<path d="M0 0 C2.31 0 4.62 0 7 0 C7.33 0.66 7.66 1.32 8 2 C4.52176885 3.15941038 2.54104422 2.70820884 -1 2 C-0.67 1.34 -0.34 0.68 0 0 Z " fill="#2A2A2A" transform="translate(751,475)"/>
<path d="M0 0 C1.98 0 3.96 0 6 0 C6 0.99 6 1.98 6 3 C4.35 3 2.7 3 1 3 C0.67 2.01 0.34 1.02 0 0 Z " fill="#2A2A2A" transform="translate(333,417)"/>
</svg>
